# xmcd
#
# Track frame offsets:
#	150
#	18225
#	38630
#	58852
#	75207
#	93785
#	111285
#	127807
#	148065
#	164725
#	182575
#	199645
#
# Disc length: 2864 seconds
#
# Revision: 2
# Processed by: cddbd v1.5.2PL0 Copyright (c) Steve Scherf et al.
# Submitted via: EasyCDDAExtractor 15.3.0.1
#
DISCID=930b2e0c
DTITLE=Lourdes Robles - Cielo De Acuarela
DYEAR=1998
DGENRE=Latin
TTITLE0=Asi Es Mi Isla
TTITLE1=Con Las Cosas Del Querer
TTITLE2=Mi Jardin
TTITLE3=Bangali, Bangala
TTITLE4=Candela Pa' Los Pies
TTITLE5=Si Pudieras Amarme
TTITLE6=Ese Hombre Que Tanto Amo Yo
TTITLE7=De Que Color
TTITLE8=Siempre
TTITLE9=Guajiro Viejo
TTITLE10=Pa' Los Pesares
TTITLE11=Tu
EXTD=
EXTT0=
EXTT1=
EXTT2=
EXTT3=
EXTT4=
EXTT5=
EXTT6=
EXTT7=
EXTT8=
EXTT9=
EXTT10=
EXTT11=
PLAYORDER=
